<?xml version="1.0" encoding="UTF-8" standalone="no"?>
<!DOCTYPE svg PUBLIC "-//W3C//DTD SVG 1.1//EN"
 "http://www.w3.org/Graphics/SVG/1.1/DTD/svg11.dtd">
<!-- Generated by graphviz version 2.42.3 (0)
 -->
<!-- Title: Router Pages: 1 -->
<svg width="547pt" height="406pt"
 viewBox="0.00 0.00 547.00 406.00" xmlns="http://www.w3.org/2000/svg" xmlns:xlink="http://www.w3.org/1999/xlink">
<g id="graph0" class="graph" transform="scale(1 1) rotate(0) translate(4 402)">
<title>Router</title>
<polygon fill="white" stroke="transparent" points="-4,4 -4,-402 543,-402 543,4 -4,4"/>
<text text-anchor="middle" x="269.5" y="-37.8" font-family="Times,serif" font-size="14.00">XMCS design.</text>
<text text-anchor="middle" x="269.5" y="-22.8" font-family="Times,serif" font-size="14.00">Created by Dom Rodriguez (shymega)</text>
<text text-anchor="middle" x="269.5" y="-7.8" font-family="Times,serif" font-size="14.00">Rev: 0.1.6</text>
<!-- phone0 -->
<g id="node1" class="node">
<title>phone0</title>
<polygon fill="none" stroke="black" points="214.5,-361.5 214.5,-397.5 268.5,-397.5 268.5,-361.5 214.5,-361.5"/>
<text text-anchor="middle" x="241.5" y="-375.8" font-family="Times,serif" font-size="14.00">Phone</text>
</g>
<!-- broker -->
<g id="node2" class="node">
<title>broker</title>
<polygon fill="none" stroke="black" points="193,-288.5 193,-324.5 290,-324.5 290,-288.5 193,-288.5"/>
<text text-anchor="middle" x="241.5" y="-302.8" font-family="Times,serif" font-size="14.00">MQTT Broker</text>
</g>
<!-- phone0&#45;&gt;broker -->
<g id="edge1" class="edge">
<title>phone0&#45;&gt;broker</title>
<path fill="none" stroke="black" d="M241.5,-351.25C241.5,-345.78 241.5,-340.02 241.5,-334.55"/>
<polygon fill="black" stroke="black" points="238,-351.31 241.5,-361.31 245,-351.31 238,-351.31"/>
<polygon fill="black" stroke="black" points="245,-334.53 241.5,-324.53 238,-334.53 245,-334.53"/>
</g>
<!-- router -->
<g id="node3" class="node">
<title>router</title>
<polygon fill="none" stroke="black" points="193.5,-215.5 193.5,-251.5 289.5,-251.5 289.5,-215.5 193.5,-215.5"/>
<text text-anchor="middle" x="241.5" y="-229.8" font-family="Times,serif" font-size="14.00">XMCS Router</text>
</g>
<!-- broker&#45;&gt;router -->
<g id="edge2" class="edge">
<title>broker&#45;&gt;router</title>
<path fill="none" stroke="black" d="M241.5,-278.25C241.5,-272.78 241.5,-267.02 241.5,-261.55"/>
<polygon fill="black" stroke="black" points="238,-278.31 241.5,-288.31 245,-278.31 238,-278.31"/>
<polygon fill="black" stroke="black" points="245,-261.53 241.5,-251.53 238,-261.53 245,-261.53"/>
</g>
<!-- frt_irc -->
<g id="node4" class="node">
<title>frt_irc</title>
<polygon fill="none" stroke="black" points="0,-142.5 0,-178.5 95,-178.5 95,-142.5 0,-142.5"/>
<text text-anchor="middle" x="47.5" y="-156.8" font-family="Times,serif" font-size="14.00">Frontend: IRC</text>
</g>
<!-- router&#45;&gt;frt_irc -->
<g id="edge3" class="edge">
<title>router&#45;&gt;frt_irc</title>
<path fill="none" stroke="black" d="M185.48,-212C159.84,-202.61 129.53,-191.52 103.85,-182.12"/>
<polygon fill="black" stroke="black" points="184.44,-215.34 195.03,-215.49 186.84,-208.77 184.44,-215.34"/>
<polygon fill="black" stroke="black" points="104.85,-178.76 94.26,-178.61 102.45,-185.34 104.85,-178.76"/>
</g>
<!-- frt_xmpp -->
<g id="node5" class="node">
<title>frt_xmpp</title>
<polygon fill="none" stroke="black" points="113.5,-142.5 113.5,-178.5 223.5,-178.5 223.5,-142.5 113.5,-142.5"/>
<text text-anchor="middle" x="168.5" y="-156.8" font-family="Times,serif" font-size="14.00">Frontend: XMPP</text>
</g>
<!-- router&#45;&gt;frt_xmpp -->
<g id="edge4" class="edge">
<title>router&#45;&gt;frt_xmpp</title>
<path fill="none" stroke="black" d="M216.47,-208.15C208.95,-200.84 200.7,-192.82 193.21,-185.53"/>
<polygon fill="black" stroke="black" points="214.22,-210.85 223.83,-215.31 219.1,-205.83 214.22,-210.85"/>
<polygon fill="black" stroke="black" points="195.62,-182.99 186.01,-178.53 190.74,-188.01 195.62,-182.99"/>
</g>
<!-- frt_rest -->
<g id="node6" class="node">
<title>frt_rest</title>
<polygon fill="none" stroke="black" points="241.5,-142.5 241.5,-178.5 387.5,-178.5 387.5,-142.5 241.5,-142.5"/>
<text text-anchor="middle" x="314.5" y="-156.8" font-family="Times,serif" font-size="14.00">Frontend: RESTful API</text>
</g>
<!-- router&#45;&gt;frt_rest -->
<g id="edge5" class="edge">
<title>router&#45;&gt;frt_rest</title>
<path fill="none" stroke="black" d="M266.53,-208.15C274.05,-200.84 282.3,-192.82 289.79,-185.53"/>
<polygon fill="black" stroke="black" points="263.9,-205.83 259.17,-215.31 268.78,-210.85 263.9,-205.83"/>
<polygon fill="black" stroke="black" points="292.26,-188.01 296.99,-178.53 287.38,-182.99 292.26,-188.01"/>
</g>
<!-- frt_matrix -->
<g id="node7" class="node">
<title>frt_matrix</title>
<polygon fill="none" stroke="black" points="406,-142.5 406,-178.5 539,-178.5 539,-142.5 406,-142.5"/>
<text text-anchor="middle" x="472.5" y="-156.8" font-family="Times,serif" font-size="14.00">Frontend: Matrix.org</text>
</g>
<!-- router&#45;&gt;frt_matrix -->
<g id="edge6" class="edge">
<title>router&#45;&gt;frt_matrix</title>
<path fill="none" stroke="black" d="M299.52,-214.67C332.31,-204.59 373.4,-191.96 407.3,-181.54"/>
<polygon fill="black" stroke="black" points="298.17,-211.42 289.64,-217.7 300.23,-218.11 298.17,-211.42"/>
<polygon fill="black" stroke="black" points="408.58,-184.81 417.11,-178.52 406.52,-178.12 408.58,-184.81"/>
</g>
<!-- client0 -->
<g id="node8" class="node">
<title>client0</title>
<polygon fill="none" stroke="black" points="214.5,-69.5 214.5,-105.5 268.5,-105.5 268.5,-69.5 214.5,-69.5"/>
<text text-anchor="middle" x="241.5" y="-83.8" font-family="Times,serif" font-size="14.00">Client</text>
</g>
<!-- frt_irc&#45;&gt;client0 -->
<g id="edge7" class="edge">
<title>frt_irc&#45;&gt;client0</title>
<path fill="none" stroke="black" d="M103.47,-139.01C136.01,-127.11 176.09,-112.44 204.66,-101.98"/>
<polygon fill="black" stroke="black" points="102.16,-135.77 93.97,-142.49 104.56,-142.34 102.16,-135.77"/>
<polygon fill="black" stroke="black" points="206.07,-105.19 214.26,-98.47 203.67,-98.62 206.07,-105.19"/>
</g>
<!-- frt_xmpp&#45;&gt;client0 -->
<g id="edge8" class="edge">
<title>frt_xmpp&#45;&gt;client0</title>
<path fill="none" stroke="black" d="M193.53,-135.15C201.05,-127.84 209.3,-119.82 216.79,-112.53"/>
<polygon fill="black" stroke="black" points="190.9,-132.83 186.17,-142.31 195.78,-137.85 190.9,-132.83"/>
<polygon fill="black" stroke="black" points="219.26,-115.01 223.99,-105.53 214.38,-109.99 219.26,-115.01"/>
</g>
<!-- frt_rest&#45;&gt;client0 -->
<g id="edge9" class="edge">
<title>frt_rest&#45;&gt;client0</title>
<path fill="none" stroke="black" d="M289.47,-135.15C281.95,-127.84 273.7,-119.82 266.21,-112.53"/>
<polygon fill="black" stroke="black" points="287.22,-137.85 296.83,-142.31 292.1,-132.83 287.22,-137.85"/>
<polygon fill="black" stroke="black" points="268.62,-109.99 259.01,-105.53 263.74,-115.01 268.62,-109.99"/>
</g>
<!-- frt_matrix&#45;&gt;client0 -->
<g id="edge10" class="edge">
<title>frt_matrix&#45;&gt;client0</title>
<path fill="none" stroke="black" d="M407.61,-139.55C365.91,-126.74 313.24,-110.55 278.52,-99.88"/>
<polygon fill="black" stroke="black" points="406.58,-142.9 417.17,-142.49 408.64,-136.21 406.58,-142.9"/>
<polygon fill="black" stroke="black" points="279.38,-96.48 268.79,-96.89 277.32,-103.17 279.38,-96.48"/>
</g>
</g>
</svg>
