<?xml version="1.0" encoding="UTF-8" standalone="no"?>
<!DOCTYPE svg PUBLIC "-//W3C//DTD SVG 1.1//EN"
 "http://www.w3.org/Graphics/SVG/1.1/DTD/svg11.dtd">
<!-- Generated by graphviz version 2.40.1 (20161225.0304)
 -->
<!-- Title: Router Pages: 1 -->
<svg width="432pt" height="406pt"
 viewBox="0.00 0.00 431.50 406.00" xmlns="http://www.w3.org/2000/svg" xmlns:xlink="http://www.w3.org/1999/xlink">
<g id="graph0" class="graph" transform="scale(1 1) rotate(0) translate(4 402)">
<title>Router</title>
<polygon fill="#ffffff" stroke="transparent" points="-4,4 -4,-402 427.5,-402 427.5,4 -4,4"/>
<text text-anchor="middle" x="211.75" y="-37.8" font-family="Times,serif" font-size="14.00" fill="#000000">ACOM&#45;XP topology.</text>
<text text-anchor="middle" x="211.75" y="-22.8" font-family="Times,serif" font-size="14.00" fill="#000000">Created by Dom Rodriguez (shymega)</text>
<text text-anchor="middle" x="211.75" y="-7.8" font-family="Times,serif" font-size="14.00" fill="#000000">Rev: 0.1.0</text>
<!-- phone0 -->
<g id="node1" class="node">
<title>phone0</title>
<polygon fill="none" stroke="#000000" points="89.5,-361.5 89.5,-397.5 175.5,-397.5 175.5,-361.5 89.5,-361.5"/>
<text text-anchor="middle" x="132.5" y="-375.8" font-family="Times,serif" font-size="14.00" fill="#000000">Phone #0</text>
</g>
<!-- broker -->
<g id="node2" class="node">
<title>broker</title>
<polygon fill="none" stroke="#000000" points="74.5,-288.5 74.5,-324.5 190.5,-324.5 190.5,-288.5 74.5,-288.5"/>
<text text-anchor="middle" x="132.5" y="-302.8" font-family="Times,serif" font-size="14.00" fill="#000000">MQTT Broker</text>
</g>
<!-- phone0&#45;&gt;broker -->
<g id="edge1" class="edge">
<title>phone0&#45;&gt;broker</title>
<path fill="none" stroke="#000000" d="M132.5,-351.3688C132.5,-345.8894 132.5,-340.1439 132.5,-334.6634"/>
<polygon fill="#000000" stroke="#000000" points="129.0001,-351.455 132.5,-361.4551 136.0001,-351.4551 129.0001,-351.455"/>
<polygon fill="#000000" stroke="#000000" points="136.0001,-334.5903 132.5,-324.5904 129.0001,-334.5904 136.0001,-334.5903"/>
</g>
<!-- router -->
<g id="node3" class="node">
<title>router</title>
<polygon fill="none" stroke="#000000" points="61.5,-215.5 61.5,-251.5 203.5,-251.5 203.5,-215.5 61.5,-215.5"/>
<text text-anchor="middle" x="132.5" y="-229.8" font-family="Times,serif" font-size="14.00" fill="#000000">ACOM&#45;XP Router</text>
</g>
<!-- broker&#45;&gt;router -->
<g id="edge2" class="edge">
<title>broker&#45;&gt;router</title>
<path fill="none" stroke="#000000" d="M132.5,-278.3688C132.5,-272.8894 132.5,-267.1439 132.5,-261.6634"/>
<polygon fill="#000000" stroke="#000000" points="129.0001,-278.455 132.5,-288.4551 136.0001,-278.4551 129.0001,-278.455"/>
<polygon fill="#000000" stroke="#000000" points="136.0001,-261.5903 132.5,-251.5904 129.0001,-261.5904 136.0001,-261.5903"/>
</g>
<!-- frt_irc -->
<g id="node4" class="node">
<title>frt_irc</title>
<polygon fill="none" stroke="#000000" points="0,-142.5 0,-178.5 119,-178.5 119,-142.5 0,-142.5"/>
<text text-anchor="middle" x="59.5" y="-156.8" font-family="Times,serif" font-size="14.00" fill="#000000">Frontend: IRC</text>
</g>
<!-- router&#45;&gt;frt_irc -->
<g id="edge3" class="edge">
<title>router&#45;&gt;frt_irc</title>
<path fill="none" stroke="#000000" d="M107.2726,-208.2726C100.1007,-201.1007 92.285,-193.285 85.0916,-186.0916"/>
<polygon fill="#000000" stroke="#000000" points="104.9091,-210.8588 114.4551,-215.4551 109.8588,-205.9091 104.9091,-210.8588"/>
<polygon fill="#000000" stroke="#000000" points="87.1363,-183.1866 77.5904,-178.5904 82.1866,-188.1363 87.1363,-183.1866"/>
</g>
<!-- frt_xmpp -->
<g id="node5" class="node">
<title>frt_xmpp</title>
<polygon fill="none" stroke="#000000" points="137.5,-142.5 137.5,-178.5 273.5,-178.5 273.5,-142.5 137.5,-142.5"/>
<text text-anchor="middle" x="205.5" y="-156.8" font-family="Times,serif" font-size="14.00" fill="#000000">Frontend: XMPP</text>
</g>
<!-- router&#45;&gt;frt_xmpp -->
<g id="edge4" class="edge">
<title>router&#45;&gt;frt_xmpp</title>
<path fill="none" stroke="#000000" d="M157.7274,-208.2726C164.8993,-201.1007 172.715,-193.285 179.9084,-186.0916"/>
<polygon fill="#000000" stroke="#000000" points="155.1412,-205.9091 150.5449,-215.4551 160.0909,-210.8588 155.1412,-205.9091"/>
<polygon fill="#000000" stroke="#000000" points="182.8134,-188.1363 187.4096,-178.5904 177.8637,-183.1866 182.8134,-188.1363"/>
</g>
<!-- client0 -->
<g id="node7" class="node">
<title>client0</title>
<polygon fill="none" stroke="#000000" points="162.5,-69.5 162.5,-105.5 248.5,-105.5 248.5,-69.5 162.5,-69.5"/>
<text text-anchor="middle" x="205.5" y="-83.8" font-family="Times,serif" font-size="14.00" fill="#000000">Client #0</text>
</g>
<!-- frt_irc&#45;&gt;client0 -->
<g id="edge5" class="edge">
<title>frt_irc&#45;&gt;client0</title>
<path fill="none" stroke="#000000" d="M104.5646,-137.9677C122.2808,-129.1096 142.5821,-118.959 160.3104,-110.0948"/>
<polygon fill="#000000" stroke="#000000" points="102.9689,-134.8524 95.5899,-142.4551 106.0994,-141.1134 102.9689,-134.8524"/>
<polygon fill="#000000" stroke="#000000" points="161.9403,-113.193 169.3193,-105.5904 158.8097,-106.9321 161.9403,-113.193"/>
</g>
<!-- frt_xmpp&#45;&gt;client0 -->
<g id="edge6" class="edge">
<title>frt_xmpp&#45;&gt;client0</title>
<path fill="none" stroke="#000000" d="M205.5,-132.3688C205.5,-126.8894 205.5,-121.1439 205.5,-115.6634"/>
<polygon fill="#000000" stroke="#000000" points="202.0001,-132.455 205.5,-142.4551 209.0001,-132.4551 202.0001,-132.455"/>
<polygon fill="#000000" stroke="#000000" points="209.0001,-115.5903 205.5,-105.5904 202.0001,-115.5904 209.0001,-115.5903"/>
</g>
<!-- frt_rest -->
<g id="node6" class="node">
<title>frt_rest</title>
<polygon fill="none" stroke="#000000" points="291.5,-142.5 291.5,-178.5 423.5,-178.5 423.5,-142.5 291.5,-142.5"/>
<text text-anchor="middle" x="357.5" y="-156.8" font-family="Times,serif" font-size="14.00" fill="#000000">Frontend: REST</text>
</g>
<!-- frt_rest&#45;&gt;client0 -->
<g id="edge7" class="edge">
<title>frt_rest&#45;&gt;client0</title>
<path fill="none" stroke="#000000" d="M310.8746,-138.1075C292.2914,-129.1827 270.9389,-118.9279 252.335,-109.9931"/>
<polygon fill="#000000" stroke="#000000" points="309.3974,-141.2808 319.927,-142.4551 312.4279,-134.9707 309.3974,-141.2808"/>
<polygon fill="#000000" stroke="#000000" points="253.6972,-106.7646 243.1676,-105.5904 250.6667,-113.0747 253.6972,-106.7646"/>
</g>
</g>
</svg>
