<?xml version="1.0" encoding="UTF-8" standalone="no"?>
<!DOCTYPE svg PUBLIC "-//W3C//DTD SVG 1.1//EN"
 "http://www.w3.org/Graphics/SVG/1.1/DTD/svg11.dtd">
<!-- Generated by graphviz version 2.40.1 (20161225.0304)
 -->
<!-- Title: Router Pages: 1 -->
<svg width="282pt" height="337pt"
 viewBox="0.00 0.00 281.50 337.00" xmlns="http://www.w3.org/2000/svg" xmlns:xlink="http://www.w3.org/1999/xlink">
<g id="graph0" class="graph" transform="scale(1 1) rotate(0) translate(4 333)">
<title>Router</title>
<polygon fill="#ffffff" stroke="transparent" points="-4,4 -4,-333 277.5,-333 277.5,4 -4,4"/>
<!-- phone0 -->
<g id="node1" class="node">
<title>phone0</title>
<polygon fill="none" stroke="#000000" points="37.5,-292.5 37.5,-328.5 123.5,-328.5 123.5,-292.5 37.5,-292.5"/>
<text text-anchor="middle" x="80.5" y="-306.8" font-family="Times,serif" font-size="14.00" fill="#000000">Phone #0</text>
</g>
<!-- broker -->
<g id="node3" class="node">
<title>broker</title>
<polygon fill="none" stroke="#000000" points="74.5,-219.5 74.5,-255.5 190.5,-255.5 190.5,-219.5 74.5,-219.5"/>
<text text-anchor="middle" x="132.5" y="-233.8" font-family="Times,serif" font-size="14.00" fill="#000000">MQTT Broker</text>
</g>
<!-- phone0&#45;&gt;broker -->
<g id="edge1" class="edge">
<title>phone0&#45;&gt;broker</title>
<path fill="none" stroke="#000000" d="M99.2924,-284.1183C103.9293,-277.6089 108.8982,-270.6333 113.5428,-264.113"/>
<polygon fill="#000000" stroke="#000000" points="96.3051,-282.2795 93.3539,-292.4551 102.0065,-286.3408 96.3051,-282.2795"/>
<polygon fill="#000000" stroke="#000000" points="116.6626,-265.7659 119.6137,-255.5904 110.9611,-261.7046 116.6626,-265.7659"/>
</g>
<!-- phone1 -->
<g id="node2" class="node">
<title>phone1</title>
<polygon fill="none" stroke="#000000" points="141.5,-292.5 141.5,-328.5 227.5,-328.5 227.5,-292.5 141.5,-292.5"/>
<text text-anchor="middle" x="184.5" y="-306.8" font-family="Times,serif" font-size="14.00" fill="#000000">Phone #1</text>
</g>
<!-- phone1&#45;&gt;broker -->
<g id="edge2" class="edge">
<title>phone1&#45;&gt;broker</title>
<path fill="none" stroke="#000000" d="M165.7076,-284.1183C161.0707,-277.6089 156.1018,-270.6333 151.4572,-264.113"/>
<polygon fill="#000000" stroke="#000000" points="162.9935,-286.3408 171.6461,-292.4551 168.6949,-282.2795 162.9935,-286.3408"/>
<polygon fill="#000000" stroke="#000000" points="154.0389,-261.7046 145.3863,-255.5904 148.3374,-265.7659 154.0389,-261.7046"/>
</g>
<!-- router -->
<g id="node4" class="node">
<title>router</title>
<polygon fill="none" stroke="#000000" points="61.5,-146.5 61.5,-182.5 203.5,-182.5 203.5,-146.5 61.5,-146.5"/>
<text text-anchor="middle" x="132.5" y="-160.8" font-family="Times,serif" font-size="14.00" fill="#000000">ACOM&#45;XP Router</text>
</g>
<!-- broker&#45;&gt;router -->
<g id="edge3" class="edge">
<title>broker&#45;&gt;router</title>
<path fill="none" stroke="#000000" d="M132.5,-209.3688C132.5,-203.8894 132.5,-198.1439 132.5,-192.6634"/>
<polygon fill="#000000" stroke="#000000" points="129.0001,-209.455 132.5,-219.4551 136.0001,-209.4551 129.0001,-209.455"/>
<polygon fill="#000000" stroke="#000000" points="136.0001,-192.5903 132.5,-182.5904 129.0001,-192.5904 136.0001,-192.5903"/>
</g>
<!-- frt_irc -->
<g id="node5" class="node">
<title>frt_irc</title>
<polygon fill="none" stroke="#000000" points="0,-73.5 0,-109.5 119,-109.5 119,-73.5 0,-73.5"/>
<text text-anchor="middle" x="59.5" y="-87.8" font-family="Times,serif" font-size="14.00" fill="#000000">Frontend: IRC</text>
</g>
<!-- router&#45;&gt;frt_irc -->
<g id="edge4" class="edge">
<title>router&#45;&gt;frt_irc</title>
<path fill="none" stroke="#000000" d="M107.2726,-139.2726C100.1007,-132.1007 92.285,-124.285 85.0916,-117.0916"/>
<polygon fill="#000000" stroke="#000000" points="104.9091,-141.8588 114.4551,-146.4551 109.8588,-136.9091 104.9091,-141.8588"/>
<polygon fill="#000000" stroke="#000000" points="87.1363,-114.1866 77.5904,-109.5904 82.1866,-119.1363 87.1363,-114.1866"/>
</g>
<!-- frt_xmpp -->
<g id="node6" class="node">
<title>frt_xmpp</title>
<polygon fill="none" stroke="#000000" points="137.5,-73.5 137.5,-109.5 273.5,-109.5 273.5,-73.5 137.5,-73.5"/>
<text text-anchor="middle" x="205.5" y="-87.8" font-family="Times,serif" font-size="14.00" fill="#000000">Frontend: XMPP</text>
</g>
<!-- router&#45;&gt;frt_xmpp -->
<g id="edge5" class="edge">
<title>router&#45;&gt;frt_xmpp</title>
<path fill="none" stroke="#000000" d="M157.7274,-139.2726C164.8993,-132.1007 172.715,-124.285 179.9084,-117.0916"/>
<polygon fill="#000000" stroke="#000000" points="155.1412,-136.9091 150.5449,-146.4551 160.0909,-141.8588 155.1412,-136.9091"/>
<polygon fill="#000000" stroke="#000000" points="182.8134,-119.1363 187.4096,-109.5904 177.8637,-114.1866 182.8134,-119.1363"/>
</g>
<!-- client0 -->
<g id="node7" class="node">
<title>client0</title>
<polygon fill="none" stroke="#000000" points="16.5,-.5 16.5,-36.5 102.5,-36.5 102.5,-.5 16.5,-.5"/>
<text text-anchor="middle" x="59.5" y="-14.8" font-family="Times,serif" font-size="14.00" fill="#000000">Client #0</text>
</g>
<!-- frt_irc&#45;&gt;client0 -->
<g id="edge6" class="edge">
<title>frt_irc&#45;&gt;client0</title>
<path fill="none" stroke="#000000" d="M59.5,-63.3688C59.5,-57.8894 59.5,-52.1439 59.5,-46.6634"/>
<polygon fill="#000000" stroke="#000000" points="56.0001,-63.455 59.5,-73.4551 63.0001,-63.4551 56.0001,-63.455"/>
<polygon fill="#000000" stroke="#000000" points="63.0001,-46.5903 59.5,-36.5904 56.0001,-46.5904 63.0001,-46.5903"/>
</g>
<!-- client1 -->
<g id="node8" class="node">
<title>client1</title>
<polygon fill="none" stroke="#000000" points="162.5,-.5 162.5,-36.5 248.5,-36.5 248.5,-.5 162.5,-.5"/>
<text text-anchor="middle" x="205.5" y="-14.8" font-family="Times,serif" font-size="14.00" fill="#000000">Client #1</text>
</g>
<!-- frt_xmpp&#45;&gt;client1 -->
<g id="edge7" class="edge">
<title>frt_xmpp&#45;&gt;client1</title>
<path fill="none" stroke="#000000" d="M205.5,-63.3688C205.5,-57.8894 205.5,-52.1439 205.5,-46.6634"/>
<polygon fill="#000000" stroke="#000000" points="202.0001,-63.455 205.5,-73.4551 209.0001,-63.4551 202.0001,-63.455"/>
<polygon fill="#000000" stroke="#000000" points="209.0001,-46.5903 205.5,-36.5904 202.0001,-46.5904 209.0001,-46.5903"/>
</g>
</g>
</svg>
